<svg xmlns="http://www.w3.org/2000/svg" viewBox="0 0 24 18" width="24" height="18">
	<style>
		tspan { white-space:pre }
		.shp0 { fill: #1c1c1c } 
	</style>
	<g id="FOOTER">
		<g id="Social Icons" style="opacity: 0.8">
			<path id="Email" class="shp0" d="M21.75 0.5L2.21 0.5C0.96 0.5 -0.05 1.56 -0.05 2.85L-0.05 15.65C-0.05 16.94 0.96 18 2.21 18L21.75 18C22.99 18 24 16.94 24 15.65L24 2.85C24 1.56 22.99 0.5 21.75 0.5ZM21.38 2.07L11.98 9.13L2.58 2.07L21.38 2.07ZM21.75 16.43L2.21 16.43C1.79 16.43 1.46 16.08 1.46 15.65L1.46 3.16L11.54 10.74C11.67 10.83 11.82 10.88 11.98 10.88C12.13 10.88 12.28 10.83 12.42 10.74L22.5 3.16L22.5 15.65C22.5 16.08 22.16 16.43 21.75 16.43Z" />
		</g>
	</g>
</svg>