<svg xmlns="http://www.w3.org/2000/svg" viewBox="0 0 64 64" width="64" height="64">
	<style>
		tspan { white-space:pre }
		.shp0 { fill: #ffffff } 
	</style>
	<g id="WHAT WE DO">
		<g id="Funeral">
			<path id="icon" class="shp0" d="M63.55 12.02C63.06 11.08 62.22 10.38 61.21 10.05L39.07 3.04C39.06 3.04 39.05 3.04 39.04 3.03L38.96 2.79C38.3 0.69 36.04 -0.48 33.94 0.19L2.79 10.05C1.78 10.37 0.94 11.07 0.45 12.02C-0.04 12.97 -0.13 14.06 0.19 15.07L14.81 61.21C15.34 62.91 16.92 64 18.62 64C19.02 64 19.43 63.94 19.83 63.81L32 59.96L44.17 63.81C44.57 63.94 44.98 64 45.38 64C47.08 64 48.66 62.91 49.19 61.21L51.56 53.74C51.56 53.73 51.57 53.72 51.57 53.7C52.32 53.33 52.92 52.73 53.32 51.98C53.81 51.03 53.9 49.94 53.58 48.93L53.33 48.15L63.81 15.07C64.13 14.05 64.04 12.97 63.55 12.02ZM46.65 60.4C46.43 61.1 45.68 61.49 44.98 61.27L36.42 58.56L48.44 54.75L46.65 60.4ZM50.95 50.75C50.79 51.06 50.51 51.3 50.17 51.4L31.65 57.27C31.62 57.28 31.59 57.29 31.56 57.3L19.02 61.27C18.32 61.49 17.57 61.1 17.35 60.4L2.73 14.27C2.62 13.93 2.65 13.57 2.82 13.25C2.98 12.94 3.26 12.7 3.6 12.59L34.75 2.73L34.75 2.73C35.45 2.51 36.2 2.9 36.42 3.6L51.04 49.73C51.15 50.07 51.11 50.43 50.95 50.75ZM42.44 13.78L53.45 17.26L48.5 32.88L42.44 13.78ZM61.27 14.27L51.93 43.73L49.9 37.3L55.99 18.07C56.2 17.39 56.14 16.67 55.81 16.04C55.48 15.4 54.93 14.94 54.25 14.72L41.73 10.76C41.65 10.73 41.56 10.71 41.47 10.7L40.02 6.14L60.4 12.59C60.74 12.7 61.02 12.94 61.18 13.25C61.35 13.57 61.38 13.93 61.27 14.27ZM27.19 23.01C26.11 23.36 25.19 24.06 24.58 24.98C23.55 24.58 22.39 24.53 21.32 24.87C20.06 25.27 19.04 26.13 18.43 27.3C17.83 28.47 17.71 29.8 18.11 31.06C18.53 32.37 19.49 33.42 20.77 33.94L26.29 36.19C26.62 36.33 26.97 36.39 27.33 36.39C27.61 36.39 27.89 36.35 28.16 36.27C28.77 36.07 29.3 35.67 29.64 35.13L32.86 30.11C33.6 28.95 33.78 27.53 33.37 26.22C32.97 24.97 32.11 23.94 30.94 23.34C29.77 22.73 28.44 22.62 27.19 23.01ZM30.61 28.67L27.4 33.69C27.39 33.71 27.37 33.72 27.35 33.72C27.33 33.73 27.31 33.73 27.29 33.72L21.77 31.47C21.24 31.25 20.83 30.8 20.65 30.25C20.47 29.68 20.52 29.06 20.8 28.53C21.08 27.99 21.55 27.6 22.12 27.42C22.35 27.34 22.58 27.31 22.81 27.31C23.35 27.31 23.88 27.5 24.3 27.88C24.65 28.18 25.14 28.29 25.58 28.15C26.03 28 26.37 27.64 26.48 27.19C26.66 26.41 27.23 25.8 27.99 25.56C28.57 25.37 29.18 25.43 29.71 25.7C30.25 25.98 30.64 26.45 30.83 27.03C31 27.58 30.92 28.18 30.61 28.67ZM34.29 9.75C33.85 8.34 32.35 7.56 30.95 8.01L9.75 14.72C9.07 14.94 8.52 15.4 8.19 16.04C7.86 16.67 7.8 17.39 8.01 18.07L17.89 49.26C18.25 50.39 19.31 51.12 20.44 51.12C20.7 51.12 20.97 51.08 21.24 50.99L42.44 44.28C43.12 44.06 43.67 43.6 44 42.97C44.33 42.33 44.39 41.61 44.17 40.93L34.29 9.75ZM20.43 48.45L10.55 17.26L21.98 13.65L31.75 10.55L41.63 41.74L20.43 48.45Z" />
		</g>
	</g>
</svg>