<svg xmlns="http://www.w3.org/2000/svg" viewBox="0 0 86 64" width="86" height="64">
	<style>
		tspan { white-space:pre }
		.shp0 { fill: #3172b9 } 
	</style>
	<g id="WHAT WE DO">
		<g id="Health">
			<path id="icon" class="shp0" d="M73.69 5.94C69.87 2.11 64.79 0 59.38 0C53.98 0 48.89 2.11 45.07 5.94L43.46 7.55L41.86 5.94C38.03 2.11 32.95 0 27.54 0C22.14 0 17.06 2.11 13.23 5.94C5.34 13.84 5.34 26.7 13.23 34.61L41.96 63.37C42.37 63.79 42.92 64 43.46 64C44.01 64 44.55 63.79 44.97 63.37L73.69 34.61C77.52 30.78 79.62 25.69 79.62 20.27C79.62 14.86 77.52 9.77 73.69 5.94ZM70.68 31.59L43.46 58.84L16.25 31.59C10.02 25.35 10.02 15.2 16.25 8.96C19.27 5.94 23.28 4.27 27.54 4.27C31.81 4.27 35.82 5.94 38.84 8.96L41.96 12.08C42.79 12.91 44.14 12.91 44.97 12.08L48.08 8.96C51.1 5.94 55.11 4.27 59.38 4.27C63.65 4.27 67.66 5.94 70.68 8.96C76.91 15.2 76.91 25.35 70.68 31.59ZM9.95 26.98L2.13 26.98C0.95 26.98 0 27.94 0 29.12C0 30.3 0.95 31.25 2.13 31.25L9.95 31.25C11.13 31.25 12.08 30.3 12.08 29.12C12.08 27.94 11.13 26.98 9.95 26.98ZM76.76 27.05L56.35 27.05L53.18 20.06C52.94 19.53 52.42 19.21 51.82 19.22C51.24 19.25 50.74 19.62 50.54 20.17L44.05 38.49L36.16 16.6C35.97 16.06 35.47 15.69 34.89 15.66C34.28 15.63 33.78 15.96 33.54 16.48L28.24 27.76L10.66 27.76C9.88 27.76 9.24 28.4 9.24 29.19C9.24 29.97 10.17 30.54 10.96 30.54L29.44 30.54C29.99 30.54 30.19 30.29 30.43 29.79L34.65 20.8L42.73 43.2C42.93 43.76 43.47 44.14 44.07 44.14C44.07 44.14 44.07 44.14 44.07 44.14C44.67 44.13 45.2 43.76 45.4 43.19L52.05 24.44L54.14 29.06C54.37 29.57 55.18 29.83 55.74 29.83L77.06 29.83C77.84 29.83 78.18 29.26 78.18 28.47C78.18 27.69 77.54 27.05 76.76 27.05ZM83.87 26.27L77.47 26.27C76.29 26.27 75.34 27.23 75.34 28.41C75.34 29.59 76.29 30.54 77.47 30.54L83.87 30.54C85.05 30.54 86 29.59 86 28.41C86 27.23 85.05 26.27 83.87 26.27Z" />
		</g>
	</g>
</svg>