<svg xmlns="http://www.w3.org/2000/svg" viewBox="0 0 65 65" width="65" height="65">
	<style>
		tspan { white-space:pre }
		.shp0 { fill: #3172b9 } 
	</style>
	<g id="WHAT WE DO">
		<g id="Legal">
			<path id="icon" class="shp0" d="M42.61 30.99L45.47 28.13C45.64 28.14 45.81 28.15 45.99 28.15C47.69 28.15 49.3 27.48 50.5 26.28L53.23 23.55C55.72 21.06 55.72 17.01 53.23 14.52L40.57 1.87C39.37 0.66 37.76 0 36.06 0C34.35 0 32.75 0.66 31.54 1.87L28.82 4.6C27.44 5.97 26.83 7.82 26.97 9.62L9.62 26.97C9.45 26.96 9.28 26.95 9.11 26.95C7.4 26.95 5.8 27.61 4.59 28.82L1.87 31.54C-0.62 34.03 -0.62 38.08 1.87 40.57L14.52 53.23C15.72 54.43 17.33 55.1 19.03 55.1C20.74 55.1 22.34 54.43 23.55 53.23L26.28 50.5C27.48 49.3 28.15 47.69 28.15 45.99C28.15 45.81 28.14 45.64 28.13 45.48L30.99 42.61L51.51 63.13C52.71 64.34 54.32 65 56.02 65C57.73 65 59.33 64.34 60.54 63.13L63.13 60.54C65.62 58.05 65.62 54 63.13 51.51L42.61 30.99ZM27.7 39.24L22.55 44.4L22.95 44.8C23.6 45.45 23.6 46.52 22.95 47.17L20.22 49.9C19.89 50.23 19.46 50.39 19.03 50.39C18.6 50.39 18.17 50.23 17.85 49.9L5.19 37.25C4.54 36.59 4.54 35.53 5.19 34.87L7.92 32.15C8.25 31.82 8.68 31.65 9.11 31.65C9.54 31.65 9.97 31.82 10.29 32.15L10.69 32.55L32.54 10.7L32.14 10.3C31.49 9.64 31.49 8.58 32.14 7.92L34.87 5.2C35.2 4.87 35.63 4.71 36.06 4.71C36.49 4.71 36.92 4.87 37.25 5.2L49.9 17.85C50.56 18.51 50.56 19.57 49.9 20.23L47.17 22.95C46.85 23.28 46.42 23.44 45.99 23.44C45.56 23.44 45.13 23.28 44.8 22.95L44.4 22.55L39.24 27.71L35.78 31.17L31.16 35.78L27.7 39.24ZM59.8 57.21L57.21 59.8C56.88 60.13 56.45 60.29 56.02 60.29C55.59 60.29 55.16 60.13 54.83 59.8L34.32 39.29L39.29 34.32L59.8 54.83C60.46 55.49 60.46 56.55 59.8 57.21Z" />
		</g>
	</g>
</svg>