<svg xmlns="http://www.w3.org/2000/svg" viewBox="0 0 68 66" width="68" height="66">
	<style>
		tspan { white-space:pre }
		.shp0 { fill: #3172b9 } 
	</style>
	<g id="WHAT WE DO">
		<g id="Legacy">
			<path id="icon" class="shp0" d="M50.39 0C40.44 -0.21 32.15 7.64 31.9 17.51L31.78 22.48C31.74 23.84 32.83 24.97 34.2 25C35.57 25.03 36.71 23.95 36.75 22.59L36.87 17.62C37.05 10.47 43.06 4.78 50.27 4.93C57.48 5.09 63.2 11.04 63.02 18.19C62.84 25.34 56.83 31.03 49.62 30.87L18.5 30.2C8.54 29.98 0.25 37.83 0.01 47.7C-0.24 57.58 7.65 65.78 17.61 66C27.56 66.21 35.85 58.36 36.1 48.49L36.22 43.57C36.26 42.22 35.17 41.08 33.8 41.05C32.43 41.02 31.29 42.11 31.25 43.46L31.13 48.38C30.95 55.53 24.94 61.22 17.73 61.07C10.52 60.91 4.8 54.96 4.98 47.81C5.16 40.66 11.17 34.97 18.38 35.13L49.5 35.8C59.46 36.02 67.75 28.17 67.99 18.29C68.24 8.42 60.35 0.22 50.39 0Z" />
		</g>
	</g>
</svg>