<svg xmlns="http://www.w3.org/2000/svg" viewBox="0 0 19 19" width="19" height="19">
	<style>
		tspan { white-space:pre }
		.shp0 { fill: #1c1c1c } 
	</style>
	<g id="FOOTER">
		<g id="Social Icons" style="opacity: 0.8">
			<path id="Linkedin" class="shp0" d="M18.43 11.68L18.43 19.05L14.46 19.05L14.46 12.17C14.46 10.44 13.89 9.27 12.45 9.27C11.36 9.27 10.7 10.06 10.42 10.83C10.31 11.1 10.29 11.49 10.29 11.87L10.29 19.05L6.32 19.05C6.32 19.05 6.37 7.4 6.32 6.2L10.29 6.2L10.29 8.02C10.28 8.03 10.27 8.05 10.26 8.06L10.29 8.06L10.29 8.02C10.81 7.14 11.75 5.89 13.86 5.89C16.47 5.89 18.43 7.73 18.43 11.68ZM2.17 0C0.81 0 -0.07 0.96 -0.07 2.22C-0.07 3.45 0.79 4.44 2.12 4.44L2.15 4.44C3.53 4.44 4.39 3.45 4.39 2.22C4.36 0.96 3.53 0 2.17 0ZM0.16 19.05L4.13 19.05L4.13 6.2L0.16 6.2L0.16 19.05Z" />
		</g>
	</g>
</svg>