<svg xmlns="http://www.w3.org/2000/svg" viewBox="0 0 116 44" width="116" height="44">
	<style>
		tspan { white-space:pre }
		.shp0 { fill: #3172b9 } 
	</style>
	<path id="Logo" class="shp0" d="M1 25.44L1 0.33L4.22 0.33L4.22 22.17L13.14 22.17L13.14 25.44L1 25.44ZM22.01 0.33L22.01 25.44L18.78 25.44L18.78 0.33L22.01 0.33ZM50 3.76C52.5 6.28 53.74 9.3 53.74 12.85C53.74 16.4 52.5 19.43 50 21.94C47.51 24.45 44.5 25.71 40.98 25.71C37.46 25.71 34.45 24.45 31.96 21.94C29.47 19.43 28.22 16.4 28.22 12.85C28.22 9.3 29.47 6.28 31.96 3.76C34.45 1.25 37.46 0 40.98 0C44.5 0 47.51 1.25 50 3.76ZM40.98 3.28C38.35 3.28 36.11 4.21 34.26 6.08C32.4 7.95 31.48 10.2 31.48 12.85C31.48 15.5 32.41 17.76 34.26 19.63C36.12 21.51 38.36 22.44 40.98 22.44C43.61 22.44 45.85 21.51 47.71 19.63C49.56 17.76 50.49 15.5 50.49 12.85C50.49 10.2 49.56 7.95 47.71 6.08C45.85 4.21 43.61 3.28 40.98 3.28ZM59.64 0.33L62.58 0.33L72.87 18.25L72.87 0.33L76.11 0.33L76.11 25.44L73.29 25.44L62.87 7.3L62.87 25.44L59.64 25.44L59.64 0.33ZM85.92 0.33L85.92 25.44L82.69 25.44L82.69 0.33L85.92 0.33ZM111.81 19.46L114.22 21.64C111.27 24.35 108.15 25.71 104.86 25.71C101.34 25.71 98.33 24.46 95.85 21.96C93.37 19.45 92.13 16.43 92.13 12.88C92.13 9.35 93.37 6.32 95.85 3.81C98.33 1.3 101.34 0.04 104.86 0.04C108.15 0.04 111.27 1.4 114.22 4.11L111.81 6.32C109.59 4.33 107.27 3.34 104.86 3.34C102.25 3.34 100.02 4.27 98.16 6.13C96.31 8 95.38 10.25 95.38 12.88C95.38 15.53 96.31 17.79 98.16 19.65C100.02 21.51 102.25 22.44 104.86 22.44C107.27 22.44 109.59 21.45 111.81 19.46ZM53.98 40.86L57.32 40.86L57.32 41.54L53.25 41.54L53.25 34.31L53.98 34.31L53.98 40.86ZM58.54 39.33C58.56 39.57 58.62 39.79 58.71 40.01C58.81 40.22 58.93 40.4 59.09 40.55C59.24 40.7 59.42 40.83 59.62 40.91C59.83 41 60.04 41.05 60.28 41.05C60.64 41.05 60.95 40.96 61.21 40.8C61.47 40.63 61.67 40.44 61.8 40.22L62.32 40.65C62.04 41.01 61.72 41.27 61.38 41.43C61.04 41.58 60.67 41.66 60.28 41.66C59.93 41.66 59.6 41.6 59.3 41.47C59 41.34 58.74 41.17 58.53 40.95C58.31 40.72 58.14 40.46 58.02 40.15C57.89 39.84 57.83 39.51 57.83 39.15C57.83 38.79 57.89 38.45 58.01 38.15C58.13 37.84 58.3 37.58 58.52 37.35C58.73 37.13 58.99 36.95 59.28 36.83C59.57 36.7 59.88 36.64 60.22 36.64C60.58 36.64 60.9 36.7 61.18 36.83C61.47 36.96 61.71 37.13 61.9 37.35C62.09 37.56 62.24 37.81 62.34 38.1C62.44 38.39 62.49 38.7 62.49 39.03L62.49 39.33L58.54 39.33ZM61.76 38.78C61.76 38.33 61.63 37.96 61.36 37.67C61.09 37.39 60.71 37.25 60.22 37.25C60 37.25 59.79 37.29 59.59 37.38C59.39 37.46 59.21 37.58 59.06 37.72C58.91 37.86 58.79 38.03 58.7 38.21C58.6 38.39 58.56 38.58 58.56 38.78L61.76 38.78ZM64.07 42.5C64.27 42.76 64.52 42.97 64.84 43.14C65.15 43.3 65.5 43.38 65.89 43.38C66.22 43.38 66.51 43.33 66.75 43.23C66.98 43.13 67.18 42.99 67.32 42.82C67.47 42.65 67.57 42.45 67.64 42.23C67.7 42 67.73 41.76 67.73 41.5L67.73 40.64L67.71 40.64C67.49 40.97 67.23 41.2 66.92 41.33C66.61 41.47 66.28 41.54 65.94 41.54C65.59 41.54 65.27 41.48 64.97 41.35C64.67 41.23 64.41 41.06 64.18 40.85C63.96 40.63 63.79 40.38 63.66 40.08C63.53 39.78 63.46 39.45 63.46 39.11C63.46 38.76 63.53 38.44 63.65 38.14C63.77 37.84 63.94 37.58 64.15 37.35C64.36 37.13 64.61 36.95 64.91 36.83C65.2 36.7 65.53 36.64 65.88 36.64C66.02 36.64 66.17 36.65 66.33 36.68C66.49 36.71 66.65 36.75 66.8 36.82C66.96 36.89 67.12 36.98 67.28 37.1C67.43 37.22 67.58 37.37 67.71 37.56L67.73 37.56L67.73 36.76L68.4 36.76L68.4 41.5C68.4 41.76 68.37 42.03 68.3 42.32C68.24 42.62 68.12 42.89 67.93 43.13C67.74 43.38 67.48 43.58 67.15 43.74C66.82 43.91 66.39 43.99 65.86 43.99C65.38 43.99 64.96 43.91 64.59 43.75C64.22 43.6 63.88 43.36 63.58 43.03L64.07 42.5ZM64.19 39.09C64.19 39.34 64.24 39.58 64.33 39.8C64.42 40.02 64.55 40.21 64.71 40.38C64.86 40.55 65.05 40.68 65.26 40.78C65.48 40.88 65.71 40.92 65.96 40.92C66.2 40.92 66.43 40.88 66.65 40.79C66.87 40.7 67.07 40.58 67.23 40.42C67.4 40.26 67.53 40.07 67.63 39.84C67.72 39.62 67.76 39.37 67.75 39.09C67.75 38.84 67.71 38.6 67.63 38.38C67.55 38.16 67.43 37.96 67.28 37.8C67.12 37.63 66.93 37.5 66.71 37.4C66.48 37.3 66.23 37.25 65.96 37.25C65.71 37.25 65.48 37.3 65.26 37.4C65.05 37.5 64.86 37.63 64.71 37.8C64.55 37.96 64.42 38.16 64.33 38.38C64.24 38.6 64.19 38.84 64.19 39.09ZM72.94 38.61L72.94 38.48C72.94 37.66 72.54 37.25 71.73 37.25C71.17 37.25 70.69 37.44 70.28 37.81L69.87 37.33C70.32 36.87 70.99 36.64 71.88 36.64C72.11 36.64 72.33 36.67 72.54 36.74C72.75 36.81 72.94 36.91 73.09 37.05C73.25 37.19 73.37 37.36 73.47 37.58C73.56 37.79 73.61 38.04 73.61 38.33L73.61 40.47C73.61 40.65 73.62 40.84 73.64 41.04C73.65 41.24 73.67 41.41 73.69 41.54L73.04 41.54C73.02 41.42 73.01 41.3 73 41.16C72.99 41.02 72.98 40.89 72.98 40.76L72.96 40.76C72.77 41.08 72.53 41.31 72.27 41.45C72 41.59 71.67 41.66 71.29 41.66C71.08 41.66 70.88 41.63 70.68 41.57C70.49 41.52 70.31 41.43 70.16 41.31C70.01 41.19 69.89 41.04 69.79 40.87C69.7 40.7 69.66 40.49 69.66 40.26C69.66 39.87 69.76 39.57 69.96 39.35C70.16 39.13 70.41 38.96 70.71 38.85C71.01 38.74 71.33 38.68 71.67 38.65C72.01 38.62 72.32 38.61 72.61 38.61L72.94 38.61ZM72.6 39.16C72.43 39.16 72.22 39.17 71.96 39.18C71.71 39.2 71.47 39.24 71.23 39.31C71 39.37 70.8 39.47 70.64 39.61C70.47 39.74 70.39 39.93 70.39 40.17C70.39 40.33 70.42 40.46 70.48 40.57C70.55 40.68 70.63 40.78 70.74 40.85C70.85 40.92 70.97 40.97 71.1 41C71.23 41.03 71.37 41.05 71.5 41.05C71.75 41.05 71.96 41.01 72.14 40.92C72.31 40.84 72.47 40.73 72.59 40.59C72.71 40.45 72.8 40.29 72.86 40.1C72.91 39.92 72.94 39.72 72.94 39.51L72.94 39.16L72.6 39.16ZM75.98 41.54L75.31 41.54L75.31 33.82L75.98 33.82L75.98 41.54ZM84.05 35.5C83.73 35.03 83.27 34.8 82.66 34.8C82.47 34.8 82.29 34.82 82.11 34.88C81.92 34.93 81.76 35.01 81.61 35.11C81.47 35.22 81.35 35.35 81.26 35.52C81.18 35.69 81.13 35.88 81.13 36.11C81.13 36.43 81.22 36.69 81.41 36.87C81.59 37.05 81.81 37.2 82.08 37.31C82.36 37.43 82.65 37.53 82.97 37.62C83.29 37.71 83.59 37.84 83.86 37.99C84.13 38.14 84.36 38.35 84.54 38.6C84.72 38.85 84.81 39.19 84.81 39.63C84.81 39.96 84.74 40.25 84.6 40.51C84.47 40.77 84.28 40.99 84.06 41.17C83.83 41.35 83.58 41.48 83.3 41.58C83.02 41.67 82.73 41.72 82.45 41.72C82.01 41.72 81.59 41.64 81.2 41.47C80.8 41.3 80.47 41.03 80.19 40.65L80.86 40.17C81.01 40.43 81.23 40.65 81.51 40.81C81.78 40.97 82.11 41.05 82.49 41.05C82.67 41.05 82.85 41.02 83.03 40.96C83.21 40.9 83.38 40.82 83.52 40.7C83.67 40.59 83.79 40.46 83.88 40.29C83.97 40.13 84.02 39.94 84.02 39.73C84.02 39.48 83.97 39.27 83.86 39.1C83.76 38.94 83.62 38.8 83.45 38.68C83.28 38.57 83.08 38.48 82.86 38.4C82.64 38.33 82.41 38.25 82.18 38.18C81.95 38.1 81.72 38.02 81.5 37.92C81.28 37.83 81.09 37.71 80.91 37.56C80.74 37.41 80.6 37.23 80.5 37.01C80.39 36.79 80.34 36.51 80.34 36.18C80.34 35.83 80.41 35.53 80.54 35.27C80.67 35.01 80.85 34.8 81.07 34.63C81.29 34.46 81.53 34.33 81.81 34.25C82.09 34.17 82.37 34.12 82.66 34.12C83.07 34.12 83.44 34.19 83.77 34.32C84.1 34.45 84.41 34.68 84.69 35L84.05 35.5ZM90.84 39.15C90.84 39.51 90.78 39.84 90.65 40.15C90.53 40.46 90.36 40.72 90.13 40.95C89.91 41.17 89.65 41.34 89.34 41.47C89.03 41.6 88.69 41.66 88.32 41.66C87.95 41.66 87.62 41.6 87.31 41.47C87 41.34 86.74 41.17 86.51 40.95C86.29 40.72 86.12 40.46 85.99 40.15C85.87 39.84 85.81 39.51 85.81 39.15C85.81 38.79 85.87 38.45 85.99 38.15C86.12 37.84 86.29 37.58 86.51 37.35C86.74 37.13 87 36.95 87.31 36.83C87.62 36.7 87.95 36.64 88.32 36.64C88.69 36.64 89.03 36.7 89.34 36.83C89.65 36.95 89.91 37.13 90.13 37.35C90.36 37.58 90.53 37.84 90.65 38.15C90.78 38.45 90.84 38.79 90.84 39.15ZM90.11 39.15C90.11 38.88 90.07 38.63 89.99 38.4C89.9 38.17 89.78 37.97 89.63 37.8C89.47 37.63 89.28 37.5 89.06 37.4C88.84 37.3 88.6 37.25 88.32 37.25C88.04 37.25 87.79 37.3 87.57 37.4C87.35 37.5 87.17 37.63 87.02 37.8C86.86 37.97 86.75 38.17 86.66 38.4C86.58 38.63 86.53 38.88 86.53 39.15C86.53 39.41 86.58 39.66 86.66 39.89C86.75 40.12 86.86 40.33 87.02 40.5C87.17 40.67 87.35 40.8 87.57 40.9C87.79 41 88.04 41.05 88.32 41.05C88.6 41.05 88.84 41 89.06 40.9C89.28 40.8 89.47 40.67 89.63 40.5C89.78 40.33 89.9 40.12 89.99 39.89C90.07 39.66 90.11 39.41 90.11 39.15ZM92.88 41.54L92.21 41.54L92.21 33.82L92.88 33.82L92.88 41.54ZM97.92 41.54C97.9 41.41 97.9 41.28 97.89 41.15C97.89 41.03 97.89 40.9 97.89 40.77L97.87 40.77C97.79 40.9 97.7 41.02 97.58 41.13C97.47 41.24 97.34 41.33 97.2 41.41C97.06 41.49 96.91 41.55 96.75 41.59C96.59 41.64 96.43 41.66 96.28 41.66C95.67 41.66 95.22 41.5 94.93 41.18C94.64 40.85 94.49 40.39 94.49 39.79L94.49 36.76L95.16 36.76L95.16 39.4C95.16 39.67 95.18 39.9 95.22 40.11C95.26 40.31 95.33 40.48 95.43 40.62C95.53 40.76 95.66 40.87 95.82 40.94C95.99 41.01 96.2 41.05 96.45 41.05C96.48 41.05 96.58 41.03 96.73 41.01C96.89 40.98 97.05 40.9 97.22 40.78C97.4 40.66 97.55 40.48 97.68 40.23C97.82 39.99 97.89 39.64 97.89 39.21L97.89 36.76L98.56 36.76L98.56 40.49C98.56 40.62 98.56 40.78 98.57 40.98C98.58 41.17 98.59 41.36 98.61 41.54L97.92 41.54ZM102.58 37.37L101.21 37.37L101.21 40.19C101.21 40.37 101.23 40.51 101.26 40.62C101.3 40.74 101.34 40.82 101.41 40.88C101.47 40.95 101.54 40.99 101.62 41.01C101.71 41.04 101.8 41.05 101.9 41.05C102.02 41.05 102.14 41.03 102.26 41C102.38 40.96 102.49 40.92 102.59 40.86L102.62 41.49C102.37 41.6 102.07 41.66 101.72 41.66C101.59 41.66 101.46 41.64 101.32 41.61C101.18 41.57 101.05 41.51 100.94 41.41C100.82 41.32 100.73 41.19 100.65 41.03C100.58 40.86 100.54 40.65 100.54 40.38L100.54 37.37L99.54 37.37L99.54 36.76L100.54 36.76L100.54 35.41L101.21 35.41L101.21 36.76L102.58 36.76L102.58 37.37ZM104.47 34.92C104.47 35.06 104.42 35.18 104.31 35.27C104.21 35.37 104.1 35.41 103.98 35.41C103.86 35.41 103.75 35.37 103.64 35.27C103.54 35.18 103.49 35.06 103.49 34.92C103.49 34.78 103.54 34.66 103.64 34.57C103.75 34.48 103.86 34.43 103.98 34.43C104.1 34.43 104.21 34.48 104.31 34.57C104.42 34.66 104.47 34.78 104.47 34.92ZM104.31 41.54L103.64 41.54L103.64 36.76L104.31 36.76L104.31 41.54ZM110.72 39.15C110.72 39.51 110.66 39.84 110.53 40.15C110.41 40.46 110.23 40.72 110.01 40.95C109.79 41.17 109.52 41.34 109.21 41.47C108.91 41.6 108.57 41.66 108.2 41.66C107.83 41.66 107.49 41.6 107.19 41.47C106.88 41.34 106.61 41.17 106.39 40.95C106.17 40.72 106 40.46 105.87 40.15C105.74 39.84 105.68 39.51 105.68 39.15C105.68 38.79 105.74 38.45 105.87 38.15C106 37.84 106.17 37.58 106.39 37.35C106.61 37.13 106.88 36.95 107.19 36.83C107.49 36.7 107.83 36.64 108.2 36.64C108.57 36.64 108.91 36.7 109.21 36.83C109.52 36.95 109.79 37.13 110.01 37.35C110.23 37.58 110.41 37.84 110.53 38.15C110.66 38.45 110.72 38.79 110.72 39.15ZM109.99 39.15C109.99 38.88 109.95 38.63 109.86 38.4C109.78 38.17 109.66 37.97 109.5 37.8C109.35 37.63 109.16 37.5 108.94 37.4C108.72 37.3 108.47 37.25 108.2 37.25C107.92 37.25 107.67 37.3 107.45 37.4C107.23 37.5 107.05 37.63 106.89 37.8C106.74 37.97 106.62 38.17 106.54 38.4C106.45 38.63 106.41 38.88 106.41 39.15C106.41 39.41 106.45 39.66 106.54 39.89C106.62 40.12 106.74 40.33 106.89 40.5C107.05 40.67 107.23 40.8 107.45 40.9C107.67 41 107.92 41.05 108.2 41.05C108.47 41.05 108.72 41 108.94 40.9C109.16 40.8 109.35 40.67 109.5 40.5C109.66 40.33 109.78 40.12 109.86 39.89C109.95 39.66 109.99 39.41 109.99 39.15ZM112.57 36.76C112.59 36.89 112.6 37.02 112.6 37.14C112.6 37.27 112.61 37.4 112.61 37.53L112.62 37.53C112.7 37.4 112.79 37.28 112.91 37.17C113.02 37.06 113.15 36.97 113.29 36.89C113.44 36.81 113.59 36.75 113.75 36.7C113.9 36.66 114.06 36.64 114.22 36.64C114.82 36.64 115.27 36.8 115.56 37.12C115.86 37.44 116 37.91 116 38.5L116 41.54L115.33 41.54L115.33 38.89C115.33 38.36 115.24 37.96 115.06 37.67C114.88 37.39 114.54 37.25 114.04 37.25C114.01 37.25 113.92 37.26 113.76 37.29C113.6 37.32 113.44 37.39 113.27 37.51C113.1 37.64 112.94 37.82 112.81 38.07C112.67 38.31 112.61 38.65 112.61 39.09L112.61 41.54L111.94 41.54L111.94 37.81C111.94 37.68 111.93 37.52 111.92 37.32C111.91 37.12 111.9 36.94 111.88 36.76L112.57 36.76ZM43.98 38.73L1 38.73L1 37.38L43.98 37.38L43.98 38.73Z" />
</svg>