<svg xmlns="http://www.w3.org/2000/svg" viewBox="0 0 14 17" width="14" height="17">
	<style>
		tspan { white-space:pre }
		.shp0 { fill: #787878 } 
	</style>
	<g id="HERO IMAGE">
		<g id="Secured">
			<path id="Shield-icon" class="shp0" d="M13.98 4.38C13.97 3.92 13.97 3.48 13.97 3.07C13.97 2.74 13.7 2.47 13.38 2.47C10.89 2.47 8.99 1.74 7.41 0.17C7.18 -0.06 6.82 -0.06 6.59 0.17C5.01 1.74 3.11 2.47 0.62 2.47C0.3 2.47 0.03 2.74 0.03 3.07C0.03 3.48 0.03 3.92 0.02 4.38C-0.06 8.65 -0.17 14.5 6.81 16.97C6.87 16.99 6.94 17 7 17C7.06 17 7.13 16.99 7.19 16.97C14.17 14.5 14.06 8.65 13.98 4.38ZM7 15.77C1.01 13.55 1.1 8.69 1.18 4.4C1.19 4.14 1.19 3.89 1.2 3.65C3.53 3.55 5.4 2.82 7 1.4C8.6 2.82 10.47 3.55 12.8 3.65C12.81 3.89 12.81 4.14 12.82 4.4C12.9 8.69 12.99 13.55 7 15.77ZM9.01 6.43L6.19 9.3L4.99 8.08C4.76 7.85 4.39 7.85 4.17 8.08C3.94 8.31 3.94 8.69 4.17 8.92L5.78 10.57C5.89 10.68 6.04 10.74 6.19 10.74C6.34 10.74 6.49 10.68 6.61 10.57L9.83 7.27C10.06 7.04 10.06 6.67 9.83 6.43C9.61 6.2 9.24 6.2 9.01 6.43Z" />
		</g>
	</g>
</svg>