<svg xmlns="http://www.w3.org/2000/svg" viewBox="0 0 19 16" width="19" height="16">
	<style>
		tspan { white-space:pre }
		.shp0 { fill: #1c1c1c } 
	</style>
	<g id="FOOTER">
		<g id="Social Icons" style="opacity: 0.8">
			<path id="Twitter" class="shp0" d="M18.5 2.61C17.82 2.92 17.09 3.13 16.32 3.22C17.11 2.74 17.71 1.99 17.99 1.09C17.26 1.53 16.45 1.85 15.58 2.02C14.89 1.28 13.9 0.81 12.81 0.81C10.72 0.81 9.02 2.53 9.02 4.66C9.02 4.96 9.05 5.25 9.12 5.53C5.96 5.37 3.17 3.84 1.29 1.51C0.97 2.08 0.78 2.74 0.78 3.45C0.78 4.78 1.45 5.96 2.47 6.65C1.85 6.63 1.26 6.46 0.75 6.17C0.75 6.18 0.75 6.2 0.75 6.22C0.75 8.08 2.06 9.64 3.79 9.99C3.48 10.08 3.14 10.12 2.79 10.12C2.55 10.12 2.31 10.1 2.08 10.05C2.56 11.58 3.96 12.7 5.62 12.73C4.33 13.76 2.69 14.37 0.91 14.37C0.61 14.37 0.3 14.36 0.01 14.32C1.69 15.41 3.68 16.05 5.82 16.05C12.8 16.05 16.62 10.19 16.62 5.1C16.62 4.94 16.62 4.77 16.61 4.6C17.35 4.06 18 3.38 18.5 2.61Z" />
		</g>
	</g>
</svg>